<?xml version="1.0" standalone="no"?>
<!DOCTYPE svg PUBLIC "-//W3C//DTD SVG 20010904//EN"
 "http://www.w3.org/TR/2001/REC-SVG-20010904/DTD/svg10.dtd">
<svg version="1.0" xmlns="http://www.w3.org/2000/svg"
 width="1252.000000pt" height="1252.000000pt" viewBox="0 0 1252.000000 1252.000000"
 preserveAspectRatio="xMidYMid meet">
<metadata>
Created by potrace 1.14, written by Peter Selinger 2001-2017
</metadata>
<g transform="translate(0.000000,1252.000000) scale(0.100000,-0.100000)"
fill="#000000" stroke="none">
<path d="M9320 12500 c-198 -37 -348 -98 -512 -207 -157 -104 -336 -309 -425
-488 -150 -299 -177 -657 -72 -977 208 -637 870 -1010 1524 -858 152 36 350
125 450 202 6 5 28 22 50 39 174 134 333 347 410 553 94 249 109 545 40 801
-56 209 -167 404 -319 558 -97 98 -120 118 -211 179 -147 98 -308 163 -490
198 -102 20 -337 20 -445 0z"/>
<path d="M5030 11939 c-106 -11 -230 -59 -310 -121 -14 -11 -88 -79 -164 -151
-77 -73 -156 -148 -176 -167 -21 -19 -113 -107 -206 -196 -93 -89 -187 -178
-209 -199 -35 -32 -260 -247 -410 -390 -28 -27 -130 -124 -226 -215 -96 -90
-233 -223 -304 -295 -117 -117 -135 -140 -178 -225 -62 -123 -84 -217 -85
-347 -1 -215 77 -407 223 -549 262 -256 649 -294 963 -97 42 27 86 65 256 227
88 83 178 169 201 191 24 22 116 110 205 195 90 85 183 175 209 199 44 42 371
354 396 377 11 11 67 -18 390 -206 229 -133 305 -176 419 -242 28 -15 58 -33
66 -38 18 -11 111 -65 162 -93 l38 -20 -37 -46 c-21 -25 -44 -53 -53 -61 -13
-13 -152 -174 -215 -249 -11 -13 -27 -31 -36 -40 -8 -9 -60 -68 -114 -131 -54
-63 -101 -117 -104 -120 -4 -3 -44 -50 -91 -105 -47 -55 -92 -107 -100 -115
-18 -19 -52 -59 -135 -155 -33 -39 -62 -72 -65 -75 -3 -3 -50 -57 -105 -120
-54 -63 -101 -117 -104 -120 -4 -3 -44 -50 -91 -105 -47 -55 -92 -107 -100
-115 -20 -22 -57 -65 -165 -190 -49 -58 -94 -110 -100 -116 -5 -6 -32 -37 -60
-69 -27 -31 -57 -66 -67 -77 -12 -14 -56 -27 -160 -48 -473 -97 -846 -242
-1253 -488 -116 -70 -359 -243 -420 -299 -11 -10 -32 -28 -47 -39 l-27 -21
482 -481 c265 -265 485 -484 488 -487 5 -5 80 45 124 82 40 34 356 213 385
218 3 1 23 9 45 19 88 38 164 66 250 92 143 42 154 44 350 79 156 27 531 27
705 0 167 -27 362 -78 512 -137 135 -52 331 -149 403 -198 24 -17 46 -30 50
-30 3 0 11 -5 18 -10 7 -6 50 -38 97 -72 290 -208 562 -529 729 -857 110 -217
214 -549 237 -756 3 -33 8 -69 11 -80 9 -38 10 -401 2 -475 -17 -152 -21 -178
-49 -308 -48 -218 -120 -411 -238 -637 -33 -64 -127 -210 -174 -272 -27 -35
-48 -66 -46 -69 1 -2 221 -222 487 -488 l484 -485 35 42 c99 119 278 371 348
492 16 27 34 57 39 66 38 63 155 301 197 398 88 205 193 545 227 736 6 33 13
69 15 80 5 27 24 152 30 195 5 34 13 120 21 230 5 67 5 420 0 475 -2 22 -6 74
-10 115 -3 41 -8 92 -11 112 -3 21 -6 50 -8 65 -2 15 -9 55 -15 88 -6 33 -13
78 -17 100 -8 55 -77 324 -106 420 -28 90 -87 253 -112 308 -9 21 -23 54 -32
75 -9 20 -25 54 -35 76 -10 21 -16 42 -14 46 2 4 39 8 82 9 43 2 101 4 128 6
28 2 118 6 200 9 83 4 200 9 260 12 190 10 238 12 310 15 l70 2 -1 -34 c-3
-57 -15 -222 -19 -249 -2 -14 -6 -63 -10 -110 -3 -47 -8 -105 -10 -130 -2 -25
-6 -83 -10 -130 -4 -47 -8 -101 -10 -120 -2 -19 -6 -73 -10 -120 -4 -47 -8
-103 -10 -125 -7 -73 -16 -178 -20 -239 -3 -34 -7 -86 -10 -116 -2 -30 -7 -89
-10 -130 -3 -41 -8 -95 -10 -120 -2 -25 -7 -81 -11 -125 -3 -44 -7 -96 -9
-115 -2 -19 -6 -73 -9 -120 -4 -47 -9 -105 -11 -130 -6 -59 -13 -147 -20 -240
-3 -41 -7 -95 -10 -120 -2 -25 -7 -79 -10 -120 -3 -41 -8 -95 -10 -120 -28
-289 -27 -458 3 -559 94 -321 378 -543 707 -556 50 -2 113 1 140 6 28 5 62 12
78 14 103 19 252 103 348 197 116 114 190 252 224 418 2 9 6 57 10 109 4 51 8
105 10 119 2 15 6 72 10 127 3 55 8 111 10 125 2 14 6 63 10 110 3 47 7 105
10 130 9 89 15 166 20 250 4 47 8 96 10 110 2 14 6 68 10 120 4 52 8 106 10
120 2 14 6 68 10 120 4 52 8 111 10 130 2 19 6 73 10 120 3 47 8 103 10 125 4
41 10 110 30 368 3 34 7 87 10 117 2 30 7 89 11 130 3 41 7 91 9 110 2 19 6
71 9 115 4 44 8 100 11 125 3 25 7 81 11 125 3 44 7 100 9 125 2 25 6 79 9
120 3 41 8 98 10 125 18 192 19 209 31 370 3 55 8 111 11 125 2 14 6 84 9 155
6 169 -16 278 -81 408 -89 175 -256 324 -438 388 -148 51 -213 53 -776 24 -47
-3 -146 -7 -220 -10 -74 -3 -171 -7 -215 -10 -44 -2 -136 -7 -205 -10 -117 -5
-169 -7 -445 -20 -60 -3 -159 -7 -220 -10 -109 -5 -240 -11 -425 -20 -52 -3
-158 -7 -235 -11 l-140 -6 25 29 c14 15 28 30 31 33 3 3 70 82 149 175 79 94
160 188 179 211 20 22 55 62 77 90 35 41 238 280 399 469 23 28 88 104 144
170 57 66 122 143 145 170 24 28 84 97 133 155 114 134 157 193 195 272 97
200 100 461 8 664 -62 138 -125 210 -343 398 -115 100 -192 150 -437 288 -55
32 -296 170 -348 201 -26 15 -54 30 -62 34 -8 3 -22 12 -30 18 -8 7 -35 23
-60 37 -25 13 -56 31 -70 39 -24 15 -458 266 -545 314 -22 13 -107 62 -190
110 -82 48 -170 99 -195 113 -78 44 -98 55 -455 262 -192 111 -420 242 -505
291 -85 49 -162 94 -170 98 -193 117 -530 303 -575 320 -75 26 -180 38 -265
30z"/>
<path d="M2209 6233 c-40 -44 -165 -209 -230 -303 -223 -322 -435 -783 -529
-1150 -12 -47 -24 -92 -26 -100 -9 -34 -33 -147 -37 -175 -3 -16 -8 -41 -11
-55 -6 -27 -12 -68 -22 -145 -3 -27 -8 -61 -10 -75 -19 -117 -26 -613 -11
-760 13 -118 18 -163 22 -190 27 -165 30 -184 40 -235 3 -14 7 -37 10 -52 3
-16 11 -46 17 -68 5 -22 11 -47 13 -55 5 -23 37 -141 47 -170 3 -8 20 -60 37
-115 18 -55 36 -109 41 -120 5 -11 31 -74 58 -140 56 -135 134 -293 199 -402
23 -41 43 -76 43 -78 0 -11 190 -286 257 -373 223 -286 501 -553 795 -763 201
-144 459 -292 658 -379 52 -22 104 -45 115 -50 99 -47 448 -156 609 -190 22
-4 51 -11 62 -13 12 -3 37 -8 55 -11 19 -3 58 -10 88 -16 30 -5 79 -13 110
-16 31 -3 67 -7 81 -10 70 -12 237 -19 435 -19 297 1 438 13 695 61 8 2 31 6
50 9 74 13 310 76 413 109 265 87 586 235 807 371 157 98 363 248 467 340 l33
30 -484 484 c-464 464 -485 482 -507 470 -13 -6 -29 -18 -37 -25 -7 -7 -52
-39 -100 -70 -48 -31 -98 -64 -112 -73 -78 -53 -327 -167 -460 -211 -64 -22
-271 -77 -315 -84 -165 -28 -307 -40 -465 -40 -114 0 -318 12 -330 19 -5 3
-19 5 -117 21 -69 11 -257 62 -363 99 -696 243 -1274 843 -1494 1552 -33 106
-63 226 -71 283 -4 25 -10 63 -15 85 -30 138 -32 522 -5 685 3 14 7 45 10 70
3 25 15 83 26 130 79 343 209 626 425 928 l38 53 -485 485 -486 485 -34 -38z"/>
</g>
</svg>
